# xmcd
#
# Track frame offsets:
#	150
#	27157
#	46030
#	72872
#	89587
#	111072
#	127260
#	150162
#	153920
#	172055
#	187555
#	204615
#
# Disc length: 2929 seconds
#
# Revision: 0
# Processed by: cddbd v1.5.1PL2 Copyright (c) Steve Scherf et al.
# Submitted via: dBpowerAMP V4.0
#
DISCID=920b6f0c
DTITLE=Maniac Mc/Mooka - Problem Child
DYEAR=2000
DGENRE=Gangsta
TTITLE0=Lifestyles featuring Nookie G,NewSense,MsKane,C-saw,KM
TTITLE1=Across The World
TTITLE2=The Interview/Let Me Know
TTITLE3=Big Face featuring MC Breed
TTITLE4=No Boundaries
TTITLE5=I'M Ova U(Can't Keep)
TTITLE6=Serpent-N-The-City
TTITLE7=The Introduction(rick Party and Angie)
TTITLE8=Party's Jumpin'
TTITLE9=MoveOut featuring PMS
TTITLE10=Have No Fear featuring Angie
TTITLE11=We Aint Playin
EXTD=
EXTT0=
EXTT1=
EXTT2=
EXTT3=
EXTT4=
EXTT5=
EXTT6=
EXTT7=
EXTT8=
EXTT9=
EXTT10=
EXTT11=
PLAYORDER=
